<svg width="35" height="35" viewBox="0 0 35 35" fill="none" xmlns="http://www.w3.org/2000/svg">
<path d="M11.375 2.91675H23.625C28.2916 2.91675 32.0833 6.70841 32.0833 11.3751V23.6251C32.0833 25.8684 31.1921 28.0198 29.6059 29.606C28.0197 31.1923 25.8682 32.0834 23.625 32.0834H11.375C6.70829 32.0834 2.91663 28.2917 2.91663 23.6251V11.3751C2.91663 9.13179 3.80777 6.98038 5.39401 5.39414C6.98026 3.80789 9.13167 2.91675 11.375 2.91675ZM11.0833 5.83341C9.69091 5.83341 8.35555 6.38654 7.37098 7.3711C6.38642 8.35567 5.83329 9.69103 5.83329 11.0834V23.9167C5.83329 26.8188 8.18121 29.1667 11.0833 29.1667H23.9166C25.309 29.1667 26.6444 28.6136 27.6289 27.6291C28.6135 26.6445 29.1666 25.3091 29.1666 23.9167V11.0834C29.1666 8.18133 26.8187 5.83341 23.9166 5.83341H11.0833ZM25.1562 8.02091C25.6397 8.02091 26.1033 8.21297 26.4452 8.55483C26.7871 8.8967 26.9791 9.36036 26.9791 9.84383C26.9791 10.3273 26.7871 10.791 26.4452 11.1328C26.1033 11.4747 25.6397 11.6667 25.1562 11.6667C24.6727 11.6667 24.2091 11.4747 23.8672 11.1328C23.5253 10.791 23.3333 10.3273 23.3333 9.84383C23.3333 9.36036 23.5253 8.8967 23.8672 8.55483C24.2091 8.21297 24.6727 8.02091 25.1562 8.02091ZM17.5 10.2084C19.4338 10.2084 21.2885 10.9766 22.6559 12.3441C24.0234 13.7115 24.7916 15.5662 24.7916 17.5001C24.7916 19.434 24.0234 21.2886 22.6559 22.6561C21.2885 24.0235 19.4338 24.7917 17.5 24.7917C15.5661 24.7917 13.7114 24.0235 12.344 22.6561C10.9765 21.2886 10.2083 19.434 10.2083 17.5001C10.2083 15.5662 10.9765 13.7115 12.344 12.3441C13.7114 10.9766 15.5661 10.2084 17.5 10.2084ZM17.5 13.1251C16.3396 13.1251 15.2268 13.586 14.4064 14.4065C13.5859 15.227 13.125 16.3398 13.125 17.5001C13.125 18.6604 13.5859 19.7732 14.4064 20.5937C15.2268 21.4141 16.3396 21.8751 17.5 21.8751C18.6603 21.8751 19.7731 21.4141 20.5936 20.5937C21.414 19.7732 21.875 18.6604 21.875 17.5001C21.875 16.3398 21.414 15.227 20.5936 14.4065C19.7731 13.586 18.6603 13.1251 17.5 13.1251Z" fill="#362E26"/>
</svg>
