<svg width="26" height="27" viewBox="0 0 26 27" fill="none" xmlns="http://www.w3.org/2000/svg">
<path d="M1.872 26.0639L2.08616e-06 24.0479L5.856 18.2879C4.992 17.2319 4.336 16.1119 3.888 14.9279C3.472 13.7439 3.264 12.4799 3.264 11.1359C3.264 9.08793 3.76 7.23193 4.752 5.56793C5.776 3.87193 7.136 2.52793 8.832 1.53593C10.528 0.511929 12.384 -7.15256e-05 14.4 -7.15256e-05C16.448 -7.15256e-05 18.304 0.511929 19.968 1.53593C21.664 2.52793 23.008 3.87193 24 5.56793C25.024 7.23193 25.536 9.08793 25.536 11.1359C25.536 13.1519 25.024 15.0079 24 16.7039C23.008 18.3999 21.664 19.7599 19.968 20.7839C18.304 21.7759 16.448 22.2719 14.4 22.2719C13.184 22.2719 12.032 22.0959 10.944 21.7439C9.856 21.3919 8.832 20.8639 7.872 20.1599L1.872 26.0639ZM14.4 19.2479C15.872 19.2479 17.216 18.8959 18.432 18.1919C19.68 17.4559 20.672 16.4799 21.408 15.2639C22.144 14.0159 22.512 12.6399 22.512 11.1359C22.512 9.63193 22.144 8.27193 21.408 7.05593C20.672 5.80793 19.696 4.83193 18.48 4.12793C17.264 3.39193 15.904 3.02393 14.4 3.02393C12.896 3.02393 11.52 3.39193 10.272 4.12793C9.056 4.83193 8.08 5.80793 7.344 7.05593C6.64 8.27193 6.288 9.63193 6.288 11.1359C6.288 12.6399 6.64 14.0159 7.344 15.2639C8.08 16.4799 9.056 17.4559 10.272 18.1919C11.52 18.8959 12.896 19.2479 14.4 19.2479Z" fill="#F2E0C0"/>
</svg>
