<svg width="35" height="35" viewBox="0 0 35 35" fill="none" xmlns="http://www.w3.org/2000/svg">
<path d="M17.5 5.83333C19.0471 5.83333 20.5309 6.44791 21.6248 7.54188C22.7188 8.63584 23.3334 10.1196 23.3334 11.6667C23.3334 13.2138 22.7188 14.6975 21.6248 15.7915C20.5309 16.8854 19.0471 17.5 17.5 17.5C15.9529 17.5 14.4692 16.8854 13.3753 15.7915C12.2813 14.6975 11.6667 13.2138 11.6667 11.6667C11.6667 10.1196 12.2813 8.63584 13.3753 7.54188C14.4692 6.44791 15.9529 5.83333 17.5 5.83333ZM17.5 20.4167C23.9459 20.4167 29.1667 23.0271 29.1667 26.25V29.1667H5.83337V26.25C5.83337 23.0271 11.0542 20.4167 17.5 20.4167Z" fill="white"/>
</svg>
