<svg width="35" height="35" viewBox="0 0 35 35" fill="none" xmlns="http://www.w3.org/2000/svg">
<path d="M24.3872 20.5044C24.0146 20.313 22.1587 19.4038 21.8135 19.2808C21.4683 19.1509 21.2153 19.0894 20.9658 19.4722C20.7129 19.8516 19.9951 20.6958 19.7695 20.9521C19.5508 21.2051 19.3286 21.2358 18.9561 21.0479C16.7412 19.9404 15.2886 19.0723 13.8291 16.5669C13.4429 15.9004 14.2153 15.9482 14.9365 14.5093C15.0596 14.2563 14.998 14.041 14.9023 13.8496C14.8066 13.6582 14.0547 11.8057 13.7402 11.0503C13.436 10.3154 13.1216 10.418 12.8926 10.4043C12.6738 10.3906 12.4243 10.3906 12.1714 10.3906C11.9185 10.3906 11.5117 10.4863 11.1665 10.8589C10.8213 11.2383 9.84717 12.1509 9.84717 14.0034C9.84717 15.856 11.1973 17.6504 11.3818 17.9033C11.5732 18.1562 14.0376 21.957 17.8213 23.5942C20.2139 24.6265 21.1504 24.7153 22.3467 24.5376C23.0747 24.4282 24.5752 23.6284 24.8862 22.7432C25.1973 21.8613 25.1973 21.106 25.105 20.9487C25.0127 20.7813 24.7598 20.6855 24.3872 20.5044Z" fill="#362E26"/>
<path d="M31.6231 11.5664C30.8506 9.73096 29.7432 8.0835 28.3315 6.66846C26.9199 5.25684 25.2725 4.146 23.4336 3.37695C21.5537 2.5874 19.5576 2.1875 17.5 2.1875H17.4316C15.3604 2.19775 13.354 2.60791 11.4673 3.41455C9.64551 4.19385 8.01172 5.30127 6.61377 6.71289C5.21582 8.12451 4.11866 9.76514 3.35987 11.5938C2.57373 13.4873 2.17725 15.5005 2.1875 17.5718C2.19776 19.9438 2.76514 22.2988 3.82813 24.4043V29.5996C3.82813 30.4678 4.53223 31.1719 5.40039 31.1719H10.5991C12.7046 32.2349 15.0596 32.8022 17.4316 32.8125H17.5034C19.5508 32.8125 21.5366 32.416 23.4063 31.6401C25.2349 30.8779 26.8789 29.7842 28.2871 28.3862C29.6987 26.9883 30.8096 25.3545 31.5855 23.5327C32.3921 21.646 32.8022 19.6396 32.8125 17.5684C32.8228 15.4868 32.4194 13.4668 31.6231 11.5664ZM26.4585 26.5371C24.0625 28.9092 20.8838 30.2148 17.5 30.2148H17.4419C15.3809 30.2046 13.3335 29.6919 11.5254 28.728L11.2383 28.5742H6.42578V23.7617L6.27198 23.4746C5.30811 21.6665 4.79541 19.6191 4.78516 17.5581C4.77149 14.1504 6.07373 10.9512 8.46289 8.5415C10.8486 6.13184 14.0376 4.79883 17.4453 4.78516H17.5034C19.2124 4.78516 20.8701 5.1167 22.4321 5.77295C23.9565 6.41211 25.3237 7.33154 26.4995 8.50732C27.6719 9.67969 28.5947 11.0503 29.2339 12.5747C29.897 14.1538 30.2285 15.8286 30.2217 17.5581C30.2012 20.9624 28.8647 24.1514 26.4585 26.5371Z" fill="#362E26"/>
</svg>
