<svg width="40" height="41" viewBox="0 0 40 41" fill="none" xmlns="http://www.w3.org/2000/svg">
<path d="M39.998 20.3582C40.1553 9.27127 31.3305 0.158721 20.2847 0.00204321C9.23897 -0.154634 0.159288 8.70395 0.00202718 19.7909C-0.131433 29.1998 6.21675 37.195 14.896 39.4905L15.0854 26.1376L10.9608 26.0791L11.0478 19.9475L15.1724 20.006L15.2099 17.3637C15.3067 10.5343 18.4295 7.41031 25.1163 7.50516C26.3818 7.52311 28.5655 7.80504 29.4603 8.06869L29.3816 13.62C28.9135 13.5663 28.0937 13.5233 27.0704 13.5088C23.7895 13.4622 22.5063 14.691 22.4604 17.9292L22.4295 20.109L28.9601 20.2016L27.7482 26.3172L22.3347 26.2404L22.139 40.0324C32.0613 38.9732 39.8524 30.6218 39.998 20.3582Z" fill="#2E1ACA"/>
</svg>
