<svg width="40" height="40" viewBox="0 0 40 40" fill="none" xmlns="http://www.w3.org/2000/svg">
<path d="M40 20.4545C40 19.0364 39.8701 17.6727 39.6289 16.3636H20.4082V24.1091H31.3915C30.9091 26.6 29.462 28.7091 27.2913 30.1273V35.1636H33.9147C37.7737 31.6727 40 26.5455 40 20.4545Z" fill="#4285F4"/>
<path d="M20.4082 40C25.9184 40 30.538 38.2182 33.9147 35.1636L27.2913 30.1273C25.4731 31.3273 23.154 32.0545 20.4082 32.0545C15.102 32.0545 10.5937 28.5455 8.97959 23.8182H2.18924V28.9818C5.54731 35.5091 12.4304 40 20.4082 40Z" fill="#34A853"/>
<path d="M8.97959 23.8C8.57143 22.6 8.33024 21.3273 8.33024 20C8.33024 18.6727 8.57143 17.4 8.97959 16.2V11.0364H2.18924C0.797774 13.7273 0 16.7636 0 20C0 23.2364 0.797774 26.2727 2.18924 28.9636L7.47681 24.9273L8.97959 23.8Z" fill="#FBBC05"/>
<path d="M20.4082 7.96364C23.4137 7.96364 26.0853 8.98182 28.2189 10.9455L34.0631 5.21818C30.5195 1.98182 25.9184 0 20.4082 0C12.4304 0 5.54731 4.49091 2.18924 11.0364L8.97959 16.2C10.5937 11.4727 15.102 7.96364 20.4082 7.96364Z" fill="#EA4335"/>
</svg>
