<svg width="79" height="75" viewBox="0 0 79 75" fill="none" xmlns="http://www.w3.org/2000/svg">
<path d="M65.1998 26.1166C65.1988 25.7422 65.1898 25.3678 65.173 24.9937V3.76568L59.2827 9.63443C54.4615 3.75522 47.1276 0 38.9126 0C30.3638 0 22.769 4.06537 17.9684 10.3617L27.6235 20.0822C28.5689 18.3421 29.908 16.8452 31.5347 15.71C33.2204 14.3997 35.6087 13.3279 38.9126 13.3279C39.3118 13.3279 39.6201 13.3746 39.8462 13.4619C43.94 13.784 47.4883 16.0346 49.5773 19.3014L42.7426 26.1105C51.3994 26.0766 61.1786 26.057 65.1992 26.1151" fill="#1C3AA9"/>
<path d="M38.7592 0.000915527C38.3834 0.0019676 38.0076 0.0108835 37.6322 0.0276573H16.3251L22.2157 5.89641C16.3146 10.6995 12.5454 18.0064 12.5454 26.1907C12.5454 34.7081 16.6259 42.2748 22.9456 47.0579L32.7023 37.4385C30.9557 36.4966 29.4532 35.1624 28.3139 33.5416C26.9987 31.8624 25.9229 29.4827 25.9229 26.191C25.9229 25.7935 25.9698 25.4865 26.0574 25.2609C26.3807 21.1826 28.6397 17.6474 31.9187 15.5662L38.753 22.3752C38.7191 13.7502 38.699 4.00727 38.7576 0.00153028" fill="#4285F4"/>
<path d="M12.5464 26.1901C12.5474 26.5661 12.5564 26.9404 12.5732 27.3129V48.541L18.4638 42.6722C23.2848 48.5514 30.6189 52.3067 38.8336 52.3067C47.3827 52.3067 54.9776 48.2413 59.7784 41.945L50.1233 32.2245C49.1778 33.9646 47.8387 35.4615 46.2119 36.5966C44.5264 37.907 42.1378 38.9788 38.8339 38.9788C38.435 38.9788 38.1268 38.9321 37.9003 38.8445C33.8069 38.5226 30.2586 36.2717 28.1696 33.0052L35.0039 26.1959C26.3468 26.2297 16.5676 26.2497 12.547 26.1916" fill="#ABABAB"/>
<path d="M16.982 62.4492C16.3418 62.4492 15.7677 62.5701 15.2599 62.8119C14.756 63.0457 14.3138 63.3932 13.9681 63.8268C13.6205 64.2668 13.3528 64.8002 13.165 65.427C12.9828 66.0485 12.8917 66.7442 12.8917 67.5141V69.7334C12.8917 70.5086 12.9828 71.207 13.165 71.8285C13.3526 72.4498 13.6176 72.9805 13.9601 73.4207C14.3021 73.8604 14.7161 74.1985 15.2019 74.435C15.6875 74.6717 16.234 74.79 16.8414 74.79C17.4652 74.79 18.0117 74.6993 18.4808 74.5177C18.9556 74.3364 19.3529 74.0751 19.673 73.7339C19.9932 73.3876 20.2389 72.9697 20.41 72.4801C20.5867 71.9906 20.6916 71.4351 20.7247 70.8138H19.1929C19.1542 71.2923 19.088 71.702 18.9942 72.043C18.9002 72.3785 18.7622 72.6561 18.5802 72.876C18.4035 73.0906 18.1716 73.2501 17.8845 73.3546C17.6029 73.4536 17.2552 73.5031 16.8414 73.5031C16.3998 73.5031 16.0244 73.4067 15.7153 73.2141C15.4061 73.0164 15.155 72.7469 14.9619 72.4057C14.7743 72.0647 14.6363 71.6661 14.5478 71.2097C14.4649 70.7534 14.4235 70.2612 14.4235 69.7331V67.4975C14.4235 66.9311 14.4732 66.4169 14.5725 65.9548C14.6774 65.4929 14.8347 65.0998 15.0445 64.7754C15.2543 64.451 15.5194 64.2007 15.8396 64.0245C16.1596 63.8431 16.5405 63.7524 16.982 63.7524C17.3521 63.7524 17.6694 63.8075 17.9341 63.9175C18.1995 64.022 18.4203 64.187 18.5965 64.4124C18.7734 64.6323 18.9087 64.9127 19.0022 65.2537C19.0962 65.5947 19.1598 66.0016 19.1929 66.4746H20.7247C20.6972 65.8258 20.595 65.2511 20.4184 64.7505C20.2415 64.2501 19.9958 63.8294 19.6813 63.4884C19.3666 63.1474 18.983 62.8889 18.5305 62.7129C18.0834 62.5371 17.5672 62.4494 16.982 62.4492ZM54.3748 62.4489C53.7343 62.4489 53.1601 62.5698 52.6523 62.8116C52.1484 63.0453 51.7062 63.3929 51.3605 63.8265C51.0129 64.2665 50.7452 64.7999 50.5574 65.4267C50.3754 66.0482 50.2844 66.7439 50.2844 67.5138V69.7331C50.2844 70.5083 50.3754 71.2066 50.5574 71.8282C50.745 72.4495 51.01 72.9802 51.3525 73.4204C51.6945 73.8601 52.1085 74.1982 52.5943 74.4347C53.0801 74.6714 53.6266 74.7897 54.2338 74.7897C54.8576 74.7897 55.4041 74.699 55.8733 74.5174C56.348 74.336 56.7454 74.0748 57.0657 73.7336C57.3855 73.3873 57.6311 72.9693 57.8024 72.4798C57.9793 71.9902 58.0842 71.4348 58.1171 70.8135H56.5853C56.5466 71.292 56.4804 71.7017 56.3866 72.0427C56.2928 72.3782 56.1548 72.6558 55.9726 72.8757C55.7959 73.0902 55.5641 73.2498 55.2772 73.3543C54.9954 73.4533 54.6476 73.5027 54.2338 73.5027C53.7922 73.5027 53.4168 73.4064 53.1077 73.2138C52.7985 73.0161 52.5474 72.7466 52.3543 72.4054C52.1667 72.0644 52.0287 71.6658 51.9402 71.2094C51.8575 70.7531 51.8162 70.2608 51.8162 69.7328V67.4972C51.8162 66.9308 51.8659 66.4166 51.9652 65.9545C52.0701 65.4926 52.2275 65.0995 52.4373 64.7751C52.647 64.4507 52.912 64.2004 53.232 64.0242C53.5522 63.8428 53.9331 63.7521 54.3745 63.7521C54.7447 63.7521 55.0621 63.8072 55.3269 63.9172C55.5916 64.0217 55.8124 64.1867 55.9893 64.4121C56.1657 64.6319 56.301 64.9124 56.395 65.2534C56.489 65.5943 56.5524 66.0013 56.5853 66.4743H58.1171C58.0896 65.8255 57.9874 65.2508 57.8108 64.7502C57.6339 64.2498 57.3882 63.8291 57.0737 63.4881C56.759 63.1471 56.3754 62.8886 55.9229 62.7126C55.4758 62.5368 54.9596 62.4488 54.3745 62.4485M25.7095 62.6136L21.8264 74.625H23.3829L24.3187 71.49H28.3924L29.3445 74.625H30.9013L27.0096 62.6142L25.7095 62.6136ZM32.5401 62.6136V74.6244H34.0553V69.9221H36.3818C36.9614 69.9221 37.4748 69.8424 37.922 69.683C38.3691 69.518 38.7445 69.2815 39.0481 68.9735C39.3572 68.6656 39.589 68.286 39.7435 67.835C39.9039 67.3787 39.984 66.8618 39.9838 66.2843C39.9838 65.7507 39.9037 65.2613 39.7435 64.816C39.5892 64.3649 39.3602 63.9772 39.0564 63.6529C38.7528 63.3227 38.3747 63.067 37.922 62.8856C37.4748 62.7041 36.9614 62.6133 36.3818 62.6133L32.5401 62.6136ZM41.1429 62.6136V63.9169H44.3059V74.6244H45.8207V63.9169H48.9923V62.6136H41.1429ZM60.162 62.6136V74.6244H61.6768V69.0725H66.5292V74.6244H68.0527V62.6136H66.5292V67.7775H61.6771V62.6136H60.162ZM73.7986 62.6136L69.9156 74.6244H71.4724L72.4078 71.4894H76.4815L77.4339 74.6244H78.9907L75.099 62.6136H73.7986ZM34.055 63.9169H36.3818C36.7516 63.9169 37.0663 63.9829 37.3259 64.1148C37.5906 64.247 37.8059 64.423 37.9716 64.6429C38.1466 64.8708 38.2732 65.1317 38.344 65.4098C38.4269 65.6957 38.4684 65.9927 38.4684 66.3009C38.4684 66.6419 38.4269 66.9554 38.344 67.2415C38.2732 67.5096 38.1463 67.7597 37.9716 67.9755C37.8059 68.179 37.5905 68.3384 37.3256 68.4538C37.0664 68.5693 36.7518 68.6271 36.3815 68.6271H34.0553L34.055 63.9169ZM26.3549 64.7253L28.0027 70.1862H24.716L26.3549 64.7253ZM74.4447 64.7253L76.0922 70.1862H72.8052L74.4447 64.7253ZM3.12237 65.5337C2.74125 65.5337 2.41278 65.63 2.13696 65.8226C1.86649 66.0152 1.64024 66.2764 1.45821 66.6061L1.43322 65.6988H0.00939941V74.6244H1.47487V68.2392C1.61309 67.8597 1.8091 67.56 2.06291 67.3401C2.32207 67.1201 2.65044 67.01 3.04802 67.01C3.17513 67.01 3.28825 67.0156 3.38739 67.0266C3.48715 67.0319 3.59482 67.0457 3.71041 67.0678L3.70239 65.649C3.66779 65.6338 3.63156 65.6227 3.59441 65.6158C3.54608 65.5979 3.49634 65.5842 3.4457 65.5746C3.38822 65.5631 3.33012 65.5549 3.2717 65.55C3.22268 65.5396 3.17278 65.5341 3.12268 65.5334L3.12237 65.5337ZM8.04883 65.5337C7.6239 65.5337 7.21264 65.608 6.81506 65.7565C6.41768 65.9051 6.06443 66.1498 5.75529 66.4906C5.45171 66.8262 5.20612 67.2662 5.01854 67.8104C4.83076 68.3496 4.73686 69.0123 4.73686 69.7985V70.8049C4.73686 71.4869 4.81698 72.0781 4.9772 72.5785C5.13701 73.0791 5.36604 73.4943 5.66428 73.8243C5.96901 74.1492 6.34636 74.3979 6.7657 74.5503C7.19598 74.7097 7.67892 74.7894 8.21451 74.7894C8.60078 74.7894 8.94581 74.7509 9.2496 74.6739C9.55853 74.597 9.83177 74.498 10.0693 74.3769C10.2915 74.2613 10.4975 74.1171 10.6821 73.9481C10.8446 73.7983 10.9916 73.6325 11.1208 73.4533L10.359 72.5293C10.2377 72.6779 10.108 72.8152 9.96999 72.9415C9.83177 73.0626 9.67998 73.1699 9.51462 73.2633C9.3416 73.3542 9.15798 73.4235 8.96792 73.4696C8.74831 73.5214 8.52318 73.5464 8.2975 73.5439C7.61834 73.5439 7.09663 73.3267 6.73237 72.8923C6.37367 72.4579 6.19431 71.7622 6.19431 70.8052V70.5986H11.1954V69.7491C11.1954 69.0671 11.1374 68.4649 11.0214 67.9426C10.9054 67.4203 10.7205 66.9803 10.4667 66.6227C10.2196 66.2709 9.8821 65.9918 9.48962 65.8143C9.09225 65.6272 8.61199 65.5337 8.04883 65.5337ZM8.04883 66.7878C8.36908 66.7878 8.6341 66.8455 8.84389 66.9608C9.05142 67.0742 9.22336 67.2426 9.34061 67.4474C9.46751 67.6564 9.55863 67.9067 9.61396 68.1983C9.67463 68.4842 9.7132 68.8004 9.72965 69.1469V69.3449H6.20264C6.22486 68.8445 6.28553 68.4292 6.38467 68.0991C6.48422 67.7691 6.61401 67.508 6.77403 67.3156C6.9396 67.1176 7.13006 66.9801 7.34541 66.9031C7.57149 66.8242 7.80961 66.7851 8.04914 66.7875" fill="#A6A6A6"/>
</svg>
