<svg width="35" height="35" viewBox="0 0 35 35" fill="none" xmlns="http://www.w3.org/2000/svg">
<path d="M7.18812 23.8853C4.54854 24.6772 2.91666 25.7709 2.91666 26.9792C2.91666 29.3956 9.44562 31.3542 17.5 31.3542C25.5544 31.3542 32.0833 29.3956 32.0833 26.9792C32.0833 25.7709 30.4507 24.6772 27.8119 23.8853" stroke="#362E26" stroke-width="2.91667" stroke-linecap="round" stroke-linejoin="round"/>
<path d="M17.5 25.5209C17.5 25.5209 26.9792 19.3259 26.9792 12.164C26.9792 7.05689 22.7354 2.91669 17.5 2.91669C12.2646 2.91669 8.02083 7.05689 8.02083 12.164C8.02083 19.3259 17.5 25.5209 17.5 25.5209Z" stroke="#362E26" stroke-width="2.91667" stroke-linejoin="round"/>
<path d="M17.5 16.0417C18.4669 16.0417 19.3943 15.6576 20.078 14.9738C20.7617 14.2901 21.1458 13.3628 21.1458 12.3958C21.1458 11.4289 20.7617 10.5016 20.078 9.81784C19.3943 9.13411 18.4669 8.75 17.5 8.75C16.5331 8.75 15.6057 9.13411 14.922 9.81784C14.2383 10.5016 13.8542 11.4289 13.8542 12.3958C13.8542 13.3628 14.2383 14.2901 14.922 14.9738C15.6057 15.6576 16.5331 16.0417 17.5 16.0417Z" stroke="#362E26" stroke-width="2.91667" stroke-linejoin="round"/>
</svg>
