<svg width="35" height="35" viewBox="0 0 35 35" fill="none" xmlns="http://www.w3.org/2000/svg">
<path d="M11.6667 4.375C12.3958 4.375 15.3125 10.9375 15.3125 11.6667C15.3125 13.125 13.125 14.5833 12.3958 16.0417C11.6667 17.5 13.125 18.9583 14.5833 20.4167C15.1521 20.9854 17.5 23.3333 18.9583 22.6042C20.4167 21.875 21.875 19.6875 23.3333 19.6875C24.0625 19.6875 30.625 22.6042 30.625 23.3333C30.625 26.25 28.4375 28.4375 26.25 29.1667C24.0625 29.8958 22.6042 29.8958 19.6875 29.1667C16.7708 28.4375 14.5833 27.7083 10.9375 24.0625C7.29167 20.4167 6.5625 18.2292 5.83334 15.3125C5.10417 12.3958 5.10417 10.9375 5.83334 8.75C6.5625 6.5625 8.75 4.375 11.6667 4.375Z" stroke="#362E26" stroke-width="2.91667" stroke-linecap="round" stroke-linejoin="round"/>
</svg>
