<svg width="100" height="100" viewBox="0 0 100 100" fill="none" xmlns="http://www.w3.org/2000/svg">
<path d="M20.8332 23.1665C19.7281 23.1665 18.6683 23.6055 17.8869 24.3869C17.1055 25.1683 16.6665 26.2281 16.6665 27.3332V58.5832C16.6665 59.6882 17.1055 60.7481 17.8869 61.5294C18.6683 62.3109 19.7281 62.7498 20.8332 62.7498C21.9382 62.7498 22.998 62.3109 23.7794 61.5294C24.5608 60.7481 24.9998 59.6882 24.9998 58.5832V27.3332C24.9998 26.2281 24.5608 25.1683 23.7794 24.3869C22.998 23.6055 21.9382 23.1665 20.8332 23.1665ZM35.4165 23.1665C34.3114 23.1665 33.2516 23.6055 32.4702 24.3869C31.6888 25.1683 31.2498 26.2281 31.2498 27.3332V43.9998C31.2498 45.1049 31.6888 46.1647 32.4702 46.9461C33.2516 47.7275 34.3114 48.1665 35.4165 48.1665C36.5216 48.1665 37.5814 47.7275 38.3628 46.9461C39.1442 46.1647 39.5832 45.1049 39.5832 43.9998V27.3332C39.5832 26.2281 39.1442 25.1683 38.3628 24.3869C37.5814 23.6055 36.5216 23.1665 35.4165 23.1665ZM49.9998 23.1665C48.8948 23.1665 47.835 23.6055 47.0536 24.3869C46.2722 25.1683 45.8332 26.2281 45.8332 27.3332V43.9998C45.8332 45.1049 46.2722 46.1647 47.0536 46.9461C47.835 47.7275 48.8948 48.1665 49.9998 48.1665C51.1049 48.1665 52.1647 47.7275 52.9461 46.9461C53.7275 46.1647 54.1665 45.1049 54.1665 43.9998V27.3332C54.1665 26.2281 53.7275 25.1683 52.9461 24.3869C52.1647 23.6055 51.1049 23.1665 49.9998 23.1665ZM64.5832 23.1665C63.4781 23.1665 62.4183 23.6055 61.6369 24.3869C60.8555 25.1683 60.4165 26.2281 60.4165 27.3332V43.9998C60.4165 45.1049 60.8555 46.1647 61.6369 46.9461C62.4183 47.7275 63.4781 48.1665 64.5832 48.1665C65.6882 48.1665 66.748 47.7275 67.5294 46.9461C68.3109 46.1647 68.7498 45.1049 68.7498 43.9998V27.3332C68.7498 26.2281 68.3109 25.1683 67.5294 24.3869C66.748 23.6055 65.6882 23.1665 64.5832 23.1665ZM35.4165 52.3332C34.3114 52.3332 33.2516 52.7722 32.4702 53.5536C31.6888 54.335 31.2498 55.3948 31.2498 56.4998V58.5832C31.2498 59.6882 31.6888 60.7481 32.4702 61.5294C33.2516 62.3109 34.3114 62.7498 35.4165 62.7498C36.5216 62.7498 37.5814 62.3109 38.3628 61.5294C39.1442 60.7481 39.5832 59.6882 39.5832 58.5832V56.4998C39.5832 55.3948 39.1442 54.335 38.3628 53.5536C37.5814 52.7722 36.5216 52.3332 35.4165 52.3332ZM49.9998 52.3332C48.8948 52.3332 47.835 52.7722 47.0536 53.5536C46.2722 54.335 45.8332 55.3948 45.8332 56.4998V58.5832C45.8332 59.6882 46.2722 60.7481 47.0536 61.5294C47.835 62.3109 48.8948 62.7498 49.9998 62.7498C51.1049 62.7498 52.1647 62.3109 52.9461 61.5294C53.7275 60.7481 54.1665 59.6882 54.1665 58.5832V56.4998C54.1665 55.3948 53.7275 54.335 52.9461 53.5536C52.1647 52.7722 51.1049 52.3332 49.9998 52.3332ZM64.5832 52.3332C63.4781 52.3332 62.4183 52.7722 61.6369 53.5536C60.8555 54.335 60.4165 55.3948 60.4165 56.4998V58.5832C60.4165 59.6882 60.8555 60.7481 61.6369 61.5294C62.4183 62.3109 63.4781 62.7498 64.5832 62.7498C65.6882 62.7498 66.748 62.3109 67.5294 61.5294C68.3109 60.7481 68.7498 59.6882 68.7498 58.5832V56.4998C68.7498 55.3948 68.3109 54.335 67.5294 53.5536C66.748 52.7722 65.6882 52.3332 64.5832 52.3332ZM79.1665 23.1665C78.0614 23.1665 77.0016 23.6055 76.2202 24.3869C75.4388 25.1683 74.9998 26.2281 74.9998 27.3332V58.5832C74.9998 59.6882 75.4388 60.7481 76.2202 61.5294C77.0016 62.3109 78.0614 62.7498 79.1665 62.7498C80.2716 62.7498 81.3314 62.3109 82.1128 61.5294C82.8942 60.7481 83.3332 59.6882 83.3332 58.5832V27.3332C83.3332 26.2281 82.8942 25.1683 82.1128 24.3869C81.3314 23.6055 80.2716 23.1665 79.1665 23.1665Z" fill="#D9D9D9"/>
<path d="M87.5 6.5H12.5C9.18479 6.5 6.00537 7.81696 3.66116 10.1612C1.31696 12.5054 0 15.6848 0 19L0 69C0 72.3152 1.31696 75.4946 3.66116 77.8388C6.00537 80.183 9.18479 81.5 12.5 81.5H87.5C90.8152 81.5 93.9946 80.183 96.3388 77.8388C98.683 75.4946 100 72.3152 100 69V19C100 15.6848 98.683 12.5054 96.3388 10.1612C93.9946 7.81696 90.8152 6.5 87.5 6.5ZM91.6667 69C91.6667 70.1051 91.2277 71.1649 90.4463 71.9463C89.6649 72.7277 88.6051 73.1667 87.5 73.1667H12.5C11.3949 73.1667 10.3351 72.7277 9.55372 71.9463C8.77232 71.1649 8.33333 70.1051 8.33333 69V19C8.33333 17.8949 8.77232 16.8351 9.55372 16.0537C10.3351 15.2723 11.3949 14.8333 12.5 14.8333H87.5C88.6051 14.8333 89.6649 15.2723 90.4463 16.0537C91.2277 16.8351 91.6667 17.8949 91.6667 19V69Z" fill="#D9D9D9"/>
</svg>
