<svg width="50" height="50" viewBox="0 0 50 50" fill="none" xmlns="http://www.w3.org/2000/svg">
<path d="M8.33353 20.8333L6.86061 22.3062L5.3877 20.8333L6.86061 19.3604L8.33353 20.8333ZM43.7502 37.5C43.7502 38.0525 43.5307 38.5824 43.14 38.9731C42.7493 39.3638 42.2194 39.5833 41.6669 39.5833C41.1143 39.5833 40.5844 39.3638 40.1937 38.9731C39.803 38.5824 39.5835 38.0525 39.5835 37.5H43.7502ZM17.2773 32.7229L6.86061 22.3062L9.80644 19.3604L20.2231 29.7771L17.2773 32.7229ZM6.86061 19.3604L17.2773 8.94375L20.2231 11.8896L9.80644 22.3062L6.86061 19.3604ZM8.33353 18.75H29.1669V22.9167H8.33353V18.75ZM43.7502 33.3333V37.5H39.5835V33.3333H43.7502ZM29.1669 18.75C33.0346 18.75 36.7439 20.2865 39.4788 23.0214C42.2137 25.7563 43.7502 29.4656 43.7502 33.3333H39.5835C39.5835 30.5707 38.4861 27.9211 36.5326 25.9676C34.5791 24.0141 31.9295 22.9167 29.1669 22.9167V18.75Z" fill="#62727F"/>
</svg>
