<svg width="76" height="75" viewBox="0 0 76 75" fill="none" xmlns="http://www.w3.org/2000/svg">
<path fill-rule="evenodd" clip-rule="evenodd" d="M61.9771 27.3426C63.1012 28.4667 64.135 29.5005 64.929 30.4378C65.7853 31.4435 66.6292 32.6361 67.1243 34.1557C67.831 36.3281 67.831 38.6687 67.1243 40.8411C66.6292 42.3638 65.7853 43.5564 64.929 44.5622C64.135 45.4963 63.1012 46.5332 61.9771 47.6573L47.9181 61.7163C46.9243 62.7393 45.8918 63.724 44.8229 64.6683C43.8171 65.5246 42.6214 66.3684 41.1019 66.8635C38.9291 67.5681 36.5892 67.5681 34.4164 66.8635C32.8969 66.3684 31.7074 65.5246 30.6954 64.6683C29.7612 63.8742 28.7274 62.8404 27.6033 61.7163L13.5443 47.6573C12.5213 46.6635 11.5366 45.6311 10.5924 44.5622C9.73608 43.5564 8.89223 42.3638 8.39713 40.8411C7.69038 38.6687 7.69038 36.3281 8.39713 34.1557C8.89223 32.6361 9.73608 31.4466 10.5924 30.4378C11.3833 29.5036 12.4171 28.4667 13.5443 27.3426L27.6033 13.2836C28.7274 12.1595 29.7612 11.1257 30.6954 10.3316C31.7043 9.47534 32.8969 8.63149 34.4164 8.13639C36.5889 7.42964 38.9294 7.42964 41.1019 8.13639C42.6245 8.63149 43.8171 9.47534 44.8229 10.3316C45.757 11.1257 46.7908 12.1564 47.9181 13.2836L61.9771 27.3426ZM54.6813 26.6046L58.583 30.5063C61.0336 32.9537 62.2573 34.1806 62.7151 35.5912C63.1199 36.8305 63.1199 38.1694 62.7151 39.4087C62.2573 40.8224 61.0336 42.0462 58.583 44.4937L54.6813 48.3953H49.9701C49.6155 48.3909 49.266 48.3108 48.9449 48.1604C48.6238 48.0101 48.3385 47.7929 48.108 47.5234L42.0485 40.8598C41.5056 40.262 40.8437 39.7842 40.1053 39.4573C39.3669 39.1304 38.5682 38.9616 37.7607 38.9616C36.9532 38.9616 36.1545 39.1304 35.4161 39.4573C34.6777 39.7842 34.0158 40.262 33.4729 40.8598L27.4103 47.5234C27.1802 47.7925 26.8953 48.0095 26.5748 48.1598C26.2542 48.3101 25.9053 48.3904 25.5513 48.3953H20.8369L16.9353 44.4937C14.4878 42.0462 13.2641 40.8193 12.8063 39.4087C12.4067 38.1676 12.4067 36.8323 12.8063 35.5912C13.2641 34.1775 14.4878 32.9537 16.9353 30.5063L20.8369 26.6046H25.5544C26.2052 26.6046 26.8809 26.8849 27.4134 27.4765L33.476 34.1401C34.0189 34.738 34.6808 35.2157 35.4192 35.5426C36.1576 35.8695 36.9563 36.0384 37.7638 36.0384C38.5714 36.0384 39.37 35.8695 40.1084 35.5426C40.8468 35.2157 41.5087 34.738 42.0516 34.1401L48.1111 27.4765C48.3416 27.207 48.6269 26.9898 48.948 26.8395C49.2691 26.6891 49.6186 26.609 49.9732 26.6046H54.6813ZM50.0448 21.9681H49.9701C47.9399 21.9681 46.0404 22.8587 44.6765 24.3564L38.6201 31.0232C38.5121 31.1432 38.38 31.2392 38.2325 31.3048C38.085 31.3705 37.9253 31.4045 37.7638 31.4045C37.6023 31.4045 37.4426 31.3705 37.2951 31.3048C37.1476 31.2392 37.0155 31.1432 36.9075 31.0232L30.8417 24.3595C30.1754 23.6133 29.36 23.0149 28.4483 22.603C27.5366 22.1912 26.5486 21.9749 25.5482 21.9681H25.4735L30.767 16.6746C33.2145 14.2271 34.4413 13.0033 35.8488 12.5456C37.0943 12.1408 38.4302 12.1408 39.6695 12.5456C41.0832 13.0033 42.3069 14.2271 44.7544 16.6777L50.0448 21.9681ZM49.9701 53.0318H50.0448L44.7513 58.3254C42.3069 60.7728 41.0832 61.9966 39.6695 62.4543C38.4302 62.8591 37.0912 62.8591 35.8488 62.4543C34.4382 61.9966 33.2145 60.7728 30.767 58.3222L25.4735 53.0287H25.5513C27.5815 53.0287 29.4779 52.1413 30.8417 50.6435L36.9044 43.9768C37.0124 43.8567 37.1445 43.7608 37.292 43.6951C37.4395 43.6294 37.5992 43.5954 37.7607 43.5954C37.9222 43.5954 38.0819 43.6294 38.2294 43.6951C38.3769 43.7608 38.509 43.8567 38.617 43.9768L44.6797 50.6404C45.346 51.3866 46.1614 51.985 47.0731 52.3969C47.9848 52.8088 48.9728 53.0251 49.9732 53.0318" fill="#362E26"/>
</svg>
