<svg width="18" height="19" viewBox="0 0 18 19" fill="none" xmlns="http://www.w3.org/2000/svg">
<path fill-rule="evenodd" clip-rule="evenodd" d="M16.2908 6.27222C16.6292 6.62946 16.9404 6.95801 17.1795 7.25587C17.4373 7.57551 17.6914 7.95452 17.8404 8.43744C18.0532 9.12784 18.0532 9.87167 17.8404 10.5621C17.6914 11.046 17.4373 11.425 17.1795 11.7446C16.9404 12.0415 16.6292 12.371 16.2908 12.7283L12.0581 17.1963C11.7589 17.5214 11.448 17.8343 11.1262 18.1344C10.8234 18.4065 10.4634 18.6747 10.0059 18.8321C9.35176 19.056 8.6473 19.056 7.99315 18.8321C7.53566 18.6747 7.17754 18.4065 6.87286 18.1344C6.59162 17.8821 6.28038 17.5535 5.94195 17.1963L1.70924 12.7283C1.40124 12.4125 1.10479 12.0843 0.820507 11.7446C0.5627 11.425 0.308644 11.046 0.159585 10.5621C-0.0531949 9.87167 -0.0531949 9.12784 0.159585 8.43744C0.308644 7.95452 0.5627 7.5765 0.820507 7.25587C1.05863 6.959 1.36987 6.62946 1.70924 6.27222L5.94195 1.80424C6.28038 1.447 6.59162 1.11846 6.87286 0.866113C7.17661 0.593977 7.53566 0.325799 7.99315 0.168455C8.6472 -0.0561517 9.35186 -0.0561517 10.0059 0.168455C10.4643 0.325799 10.8234 0.593977 11.1262 0.866113C11.4074 1.11846 11.7187 1.44601 12.0581 1.80424L16.2908 6.27222ZM14.0943 6.03769L15.2689 7.27764C16.0067 8.05546 16.3751 8.44536 16.5129 8.89364C16.6348 9.28749 16.6348 9.71301 16.5129 10.1069C16.3751 10.5561 16.0067 10.9451 15.2689 11.7229L14.0943 12.9628H12.6759C12.5691 12.9614 12.4639 12.936 12.3672 12.8882C12.2705 12.8404 12.1846 12.7714 12.1152 12.6857L10.2909 10.568C10.1275 10.378 9.92819 10.2262 9.70588 10.1223C9.48356 10.0184 9.24313 9.96475 9 9.96475C8.75688 9.96475 8.51644 10.0184 8.29412 10.1223C8.07181 10.2262 7.87253 10.378 7.70909 10.568L5.88382 12.6857C5.81455 12.7712 5.7288 12.8402 5.63229 12.888C5.53578 12.9358 5.43074 12.9613 5.32415 12.9628H3.90481L2.73015 11.7229C1.99329 10.9451 1.62486 10.5552 1.48705 10.1069C1.36673 9.71243 1.36673 9.28808 1.48705 8.89364C1.62486 8.44437 1.99329 8.05546 2.73015 7.27764L3.90481 6.03769H5.32509C5.52102 6.03769 5.72445 6.12675 5.88476 6.31478L7.71003 8.43249C7.87347 8.62249 8.07275 8.7743 8.29506 8.87819C8.51737 8.98209 8.75781 9.03575 9.00094 9.03575C9.24406 9.03575 9.4845 8.98209 9.70681 8.87819C9.92913 8.7743 10.1284 8.62249 10.2918 8.43249L12.1162 6.31478C12.1856 6.22914 12.2715 6.16011 12.3681 6.11233C12.4648 6.06455 12.57 6.0391 12.6768 6.03769H14.0943ZM12.6983 4.5642H12.6759C12.0646 4.5642 11.4928 4.84722 11.0821 5.32321L9.25874 7.44192C9.22622 7.48006 9.18646 7.51056 9.14205 7.53144C9.09763 7.55231 9.04956 7.5631 9.00094 7.5631C8.95232 7.5631 8.90424 7.55231 8.85983 7.53144C8.81542 7.51056 8.77566 7.48006 8.74313 7.44192L6.91692 5.3242C6.7163 5.08704 6.47083 4.89689 6.19634 4.76599C5.92184 4.63509 5.62441 4.56635 5.32321 4.5642H5.30071L6.89443 2.8819C7.63128 2.10409 8.00065 1.71518 8.42439 1.56971C8.79938 1.44106 9.20156 1.44106 9.57467 1.56971C10.0003 1.71518 10.3687 2.10409 11.1056 2.88289L12.6983 4.5642ZM12.6759 14.4363H12.6983L11.1046 16.1186C10.3687 16.8964 10.0003 17.2853 9.57467 17.4308C9.20156 17.5594 8.79844 17.5594 8.42439 17.4308C7.99971 17.2853 7.63128 16.8964 6.89443 16.1176L5.30071 14.4353H5.32415C5.93539 14.4353 6.50631 14.1533 6.91692 13.6773L8.74219 11.5586C8.77472 11.5204 8.81448 11.49 8.85889 11.4691C8.90331 11.4482 8.95138 11.4374 9 11.4374C9.04862 11.4374 9.09669 11.4482 9.14111 11.4691C9.18552 11.49 9.22528 11.5204 9.25781 11.5586L11.0831 13.6763C11.2837 13.9135 11.5292 14.1036 11.8037 14.2345C12.0782 14.3654 12.3756 14.4342 12.6768 14.4363" fill="#62727F"/>
</svg>
