<svg width="21" height="21" viewBox="0 0 21 21" fill="none" xmlns="http://www.w3.org/2000/svg">
<path d="M6.57365 6.75109H13.6791C13.9597 6.75068 14.2346 6.82973 14.472 6.97907C14.7095 7.12842 14.8998 7.34195 15.0209 7.59497C15.1627 7.89517 15.2173 8.22918 15.1785 8.55891C15.1397 8.88864 15.0091 9.20085 14.8015 9.45995L11.2488 13.7637C11.1093 13.9246 10.937 14.0536 10.7433 14.1421C10.5497 14.2305 10.3393 14.2762 10.1264 14.2762C9.91352 14.2762 9.70312 14.2305 9.50948 14.1421C9.31583 14.0536 9.14345 13.9246 9.00403 13.7637L5.45129 9.45995C5.24369 9.20085 5.11305 8.88864 5.07425 8.55891C5.03546 8.22918 5.09008 7.89517 5.23188 7.59497C5.35301 7.34195 5.54332 7.12842 5.78078 6.97907C6.01824 6.82973 6.29313 6.75068 6.57365 6.75109Z" fill="#62727F"/>
</svg>
